<svg xmlns="http://www.w3.org/2000/svg" viewBox="0 0 64 64"><defs><clipPath id="c"><circle cx="32" cy="32" r="32"/></clipPath></defs><g clip-path="url(#c)"><rect width="64" height="64" fill="#0039A6"/><polygon points="51.00,28.60 51.84,30.84 54.23,30.95 52.36,32.44 53.00,34.75 51.00,33.43 49.00,34.75 49.64,32.44 47.77,30.95 50.16,30.84" fill="#FFDA44"/><polygon points="48.45,38.10 49.29,40.34 51.69,40.45 49.81,41.94 50.45,44.25 48.45,42.93 46.46,44.25 47.10,41.94 45.22,40.45 47.62,40.34" fill="#FFDA44"/><polygon points="41.50,45.05 42.34,47.30 44.73,47.40 42.86,48.90 43.50,51.21 41.50,49.88 39.50,51.21 40.14,48.90 38.27,47.40 40.66,47.30" fill="#FFDA44"/><polygon points="32.00,47.60 32.84,49.84 35.23,49.95 33.36,51.44 34.00,53.75 32.00,52.43 30.00,53.75 30.64,51.44 28.77,49.95 31.16,49.84" fill="#FFDA44"/><polygon points="22.50,45.05 23.34,47.30 25.73,47.40 23.86,48.90 24.50,51.21 22.50,49.88 20.50,51.21 21.14,48.90 19.27,47.40 21.66,47.30" fill="#FFDA44"/><polygon points="15.55,38.10 16.38,40.34 18.78,40.45 16.90,41.94 17.54,44.25 15.55,42.93 13.55,44.25 14.19,41.94 12.31,40.45 14.71,40.34" fill="#FFDA44"/><polygon points="13.00,28.60 13.84,30.84 16.23,30.95 14.36,32.44 15.00,34.75 13.00,33.43 11.00,34.75 11.64,32.44 9.77,30.95 12.16,30.84" fill="#FFDA44"/><polygon points="15.55,19.10 16.38,21.34 18.78,21.45 16.90,22.94 17.54,25.25 15.55,23.93 13.55,25.25 14.19,22.94 12.31,21.45 14.71,21.34" fill="#FFDA44"/><polygon points="22.50,12.15 23.34,14.39 25.73,14.49 23.86,15.99 24.50,18.30 22.50,16.97 20.50,18.30 21.14,15.99 19.27,14.49 21.66,14.39" fill="#FFDA44"/><polygon points="32.00,9.60 32.84,11.84 35.23,11.95 33.36,13.44 34.00,15.75 32.00,14.43 30.00,15.75 30.64,13.44 28.77,11.95 31.16,11.84" fill="#FFDA44"/><polygon points="41.50,12.15 42.34,14.39 44.73,14.49 42.86,15.99 43.50,18.30 41.50,16.97 39.50,18.30 40.14,15.99 38.27,14.49 40.66,14.39" fill="#FFDA44"/><polygon points="48.45,19.10 49.29,21.34 51.69,21.45 49.81,22.94 50.45,25.25 48.45,23.93 46.46,25.25 47.10,22.94 45.22,21.45 47.62,21.34" fill="#FFDA44"/></g></svg>
