<svg xmlns="http://www.w3.org/2000/svg" viewBox="0 0 844.174 644.923" role="img" aria-labelledby="title"><title id="title">Tragram symbol, one colour</title>
<defs><path id="t" d="M202.499,0.678 C192.325,1.546,170.719,5.449,161.574,8.070 C147.812,12.015,132.958,17.916,119.647,24.724 C113.527,27.855,103.474,33.831,97.308,38.004 C84.722,46.521,69.309,59.667,59.129,70.568 C55.388,74.574,48.959,82.272,44.841,87.675 C31.269,105.484,20.508,124.724,12.432,145.619 C7.492,158.402,3.587,172.127,1.472,184.146 C0.663,188.741,0.001,192.612,-0.000,192.750 C-0.000,192.887,65.690,193.000,145.980,193.000 L291.961,193.000 L291.989,291.349 C292.007,353.743,292.400,392.753,293.065,398.054 C293.641,402.650,294.734,409.355,295.493,412.955 C297.529,422.616,302.465,436.149,308.187,447.764 C310.968,453.409,316.310,462.460,320.059,467.877 C323.807,473.294,331.674,482.735,337.540,488.857 C343.407,494.979,352.097,503.077,356.853,506.852 C361.608,510.627,371.124,517.729,377.999,522.634 C403.355,540.725,433.009,562.967,497.999,612.644 C518.099,628.008,534.099,639.491,537.999,641.354 C542.900,643.694,546.252,644.550,551.622,644.832 C557.113,645.120,559.749,644.760,563.122,643.261 C565.529,642.191,568.981,640.064,570.793,638.532 C572.604,637.001,575.079,633.893,576.293,631.624 L578.499,627.500 L578.806,520.000 C579.029,441.605,578.796,410.469,577.944,405.000 C577.302,400.875,575.463,393.867,573.857,389.427 C572.252,384.987,568.856,377.787,566.312,373.427 C562.932,367.635,558.407,362.251,549.511,353.436 C542.815,346.800,532.873,337.721,527.418,333.259 C521.962,328.797,512.549,320.934,506.499,315.785 L495.499,306.424 L495.241,249.761 L494.983,193.099 L575.241,192.758 C653.563,192.425,655.776,192.362,666.999,190.175 C689.204,185.848,702.598,181.464,722.777,171.922 C746.364,160.769,767.770,144.631,786.682,123.745 C798.748,110.420,811.856,91.181,820.255,74.471 C824.804,65.420,830.281,52.122,834.413,40.098 C837.626,30.751,842.178,12.816,843.513,4.250 L844.175,0.000 L525.337,0.168 C349.976,0.261,204.699,0.490,202.499,0.678 Z"/><clipPath id="t-clip"><use href="#t"/></clipPath><mask id="cut"><rect x="-10" y="-10" width="870" height="670" fill="#fff"/><path d="M352 186C421.5 228 446 264 502 306" fill="none" stroke="#000" stroke-width="16"/></mask></defs>
<use href="#t" fill="#FFFFFF" mask="url(#cut)"/>
</svg>
